#!OML:ASF H:\Dans Jumps\Project 1\Capture day 1\Session 1\subject.ASF
:FULLY-SPECIFIED
:DEGREES
565
root 0.052036 17.4231 -7.22118 9.23254 -1.3974 -0.726184
lowerback 4.85789 0.156131 -0.845626
upperback 5.8152 0.15495 1.35586
thorax 3.26593 0.0143396 1.86843
lowerneck -13.5314 0.441489 -1.43326
upperneck 33.7604 1.11167 -0.176402
head 13.6738 0.27414 0.35262
rclavicle -2.08724e-015 -1.59028e-015
rhumerus -25.3824 -10.5735 -81.1387
rradius 27.4295
rwrist 27.6724
rhand -18.1457 -23.5754
rfingers 7.12502
rthumb 8.12974 -53.399
lclavicle -2.08724e-015 -1.59028e-015
lhumerus -24.6994 -7.9777 90.5054
lradius 26.4667
lwrist 16.8445
lhand -27.8077 -6.16198
lfingers 7.12502
lthumb -1.20019 23.8144
rfemur -24.1545 -2.76858 18.9925
rtibia 33.587
rfoot -17.1705 -1.90164
rtoes 4.48332
lfemur -22.5827 5.99019 -18.0692
ltibia 29.5992
lfoot -14.1829 5.89717
ltoes 0.53101
566
root 0.052209 17.4231 -7.22248 9.22687 -1.39051 -0.731485
lowerback 4.85959 0.152239 -0.847314
upperback 5.81961 0.149669 1.35759
thorax 3.2698 0.0115423 1.87129
lowerneck -13.5395 0.441767 -1.43557
upperneck 33.7674 1.11014 -0.168414
head 13.6785 0.274117 0.356021
rclavicle 3.97569e-016 -3.37934e-015
rhumerus -25.3724 -10.5864 -81.1308
rradius 27.4195
rwrist 27.69
rhand -18.1415 -23.5815
rfingers 7.12502
rthumb 8.13378 -53.4049
lclavicle 3.97569e-016 -3.37934e-015
lhumerus -24.7141 -7.95095 90.5033
lradius 26.4322
lwrist 16.816
lhand -27.723 -6.01775
lfingers 7.12502
lthumb -1.11842 23.9591
rfemur -24.1491 -2.77567 18.9982
rtibia 33.5808
rfoot -17.1647 -1.89727
rtoes 4.503
lfemur -22.5809 5.98143 -18.0624
ltibia 29.599
lfoot -14.1796 5.89595
ltoes 0.549783
567
root 0.0523468 17.4233 -7.22367 9.22128 -1.38677 -0.734206
lowerback 4.86042 0.149518 -0.852078
upperback 5.82357 0.145896 1.35845
thorax 3.27362 0.0094038 1.87494
lowerneck -13.5476 0.440199 -1.43914
upperneck 33.778 1.10635 -0.160512
head 13.685 0.272912 0.359279
rclavicle 5.06901e-015 2.98177e-015
rhumerus -25.366 -10.5997 -81.1227
rradius 27.4116
rwrist 27.7083
rhand -18.1409 -23.5832
rfingers 7.12502
rthumb 8.13436 -53.4066
lclavicle 5.06901e-015 2.98177e-015
lhumerus -24.7297 -7.92547 90.5026
lradius 26.4013
lwrist 16.7851
lhand -27.6247 -5.83526
lfingers 7.12502
lthumb -1.02347 24.142
rfemur -24.1443 -2.77989 19.0007
rtibia 33.5754
rfoot -17.1603 -1.89345
rtoes 4.51804
lfemur -22.5779 5.97402 -18.0584
ltibia 29.5975
lfoot -14.1773 5.89509
ltoes 0.567798
568
root 0.0524298 17.4234 -7.22486 9.21606 -1.38484 -0.736317
lowerback 4.85999 0.148143 -0.857774
upperback 5.82754 0.143894 1.35921
thorax 3.27809 0.00811116 1.87898
lowerneck -13.553 0.437103 -1.44696
upperneck 33.7894 1.10018 -0.148759
head 13.6911 0.270663 0.364445
rclavicle 7.35503e-015 -5.96354e-016
rhumerus -25.3625 -10.6101 -81.1155
rradius 27.4088
rwrist 27.7211
rhand -18.1395 -23.5834
rfingers 7.12502
rthumb 8.1357 -53.4068
lclavicle 7.35503e-015 -5.96354e-016
lhumerus -24.7436 -7.90568 90.5043
lradius 26.3739
lwrist 16.7576
lhand -27.5311 -5.6448
lfingers 7.12502
lthumb -0.933006 24.3329
rfemur -24.1403 -2.78069 19.0025
rtibia 33.571
rfoot -17.1567 -1.89073
rtoes 4.53045
lfemur -22.5753 5.96825 -18.055
ltibia 29.5952
lfoot -14.1745 5.89366
ltoes 0.584966
569
root 0.0523944 17.4235 -7.22603 9.21315 -1.38358 -0.738326
lowerback 4.85733 0.148575 -0.862311
upperback 5.83048 0.144374 1.35826
thorax 3.28263 0.00814715 1.88056
lowerneck -13.5571 0.432338 -1.45263
upperneck 33.8023 1.09074 -0.136369
head 13.6976 0.267366 0.368988
rclavicle -3.47873e-015 -4.17448e-015
rhumerus -25.3609 -10.6272 -81.1095
rradius 27.4052
rwrist 27.732
rhand -18.1443 -23.5798
rfingers 7.12502
rthumb 8.13106 -53.4033
lclavicle -3.47873e-015 -4.17448e-015
lhumerus -24.7561 -7.89958 90.507
lradius 26.3498
lwrist 16.7353
lhand -27.4561 -5.4879
lfingers 7.12502
lthumb -0.860599 24.4901
rfemur -24.1388 -2.7768 19.0043
rtibia 33.5674
rfoot -17.1532 -1.89222
rtoes 4.53801
lfemur -22.576 5.96558 -18.0521
ltibia 29.5934
lfoot -14.1717 5.89191
ltoes 0.598808
570
root 0.0522989 17.4236 -7.22717 9.2121 -1.38064 -0.73996
lowerback 4.85172 0.149203 -0.865737
upperback 5.83328 0.145172 1.35646
thorax 3.28867 0.00839435 1.88063
lowerneck -13.5571 0.426583 -1.45966
upperneck 33.8131 1.07958 -0.122284
head 13.7023 0.263414 0.374156
rclavicle -4.96962e-015 2.98177e-015
rhumerus -25.3584 -10.6471 -81.1051
rradius 27.4021
rwrist 27.7398
rhand -18.148 -23.5795
rfingers 7.12502
rthumb 8.1275 -53.4032
lclavicle -4.96962e-015 2.98177e-015
lhumerus -24.7654 -7.90212 90.5103
lradius 26.3296
lwrist 16.7181
lhand -27.4011 -5.36156
lfingers 7.12502
lthumb -0.807465 24.6167
rfemur -24.1392 -2.7733 19.0062
rtibia 33.5641
rfoot -17.1488 -1.89539
rtoes 4.54159
lfemur -22.5793 5.96366 -18.0497
ltibia 29.5924
lfoot -14.1703 5.88806
ltoes 0.608038
